<svg width="272" height="71" viewBox="0 0 272 71" fill="none" xmlns="http://www.w3.org/2000/svg">
<g filter="url(#filter0_d_145_989)">
<path d="M103.957 39L97.8047 26.9297C97.4271 26.9818 97.0365 27.0208 96.6328 27.0469C96.2422 27.0729 95.8385 27.0859 95.4219 27.0859C94.9401 27.0859 94.4453 27.0664 93.9375 27.0273C93.4427 26.9883 92.9284 26.9362 92.3945 26.8711V36.793L96.8086 38.1992V39H85.207V38.1992L88.8008 36.793V12.3984L85.207 10.9922V10.1914H96.2031C97.8958 10.1914 99.3997 10.3867 100.715 10.7773C102.03 11.1549 103.137 11.6953 104.035 12.3984C104.947 13.1016 105.637 13.9479 106.105 14.9375C106.574 15.9141 106.809 17.0013 106.809 18.1992C106.809 19.957 106.353 21.5195 105.441 22.8867C104.543 24.2409 103.208 25.276 101.438 25.9922L107.121 37.0859L109.992 38.1992V39H103.957ZM96.7695 12.2422H92.3945V24.8008C92.9284 24.8659 93.4297 24.918 93.8984 24.957C94.3802 24.9831 94.849 24.9961 95.3047 24.9961C100.331 24.9961 102.844 22.8346 102.844 18.5117C102.844 16.4154 102.323 14.8464 101.281 13.8047C100.24 12.763 98.7357 12.2422 96.7695 12.2422ZM123.605 38.1992V39H112.805V38.1992L116.398 36.793V22.125L112.805 20.7188V19.918L119.602 18.5117L120.012 18.9219V36.793L123.605 38.1992ZM115.09 12.6328C115.09 11.9557 115.324 11.3828 115.793 10.9141C116.275 10.4323 116.867 10.1914 117.57 10.1914C118.247 10.1914 118.82 10.4323 119.289 10.9141C119.771 11.3828 120.012 11.9557 120.012 12.6328C120.012 13.3359 119.771 13.9284 119.289 14.4102C118.82 14.8789 118.247 15.1133 117.57 15.1133C116.867 15.1133 116.275 14.8789 115.793 14.4102C115.324 13.9284 115.09 13.3359 115.09 12.6328ZM136.789 38.1992V39H126.203V38.1992L129.797 36.793V22.125L126.203 20.7188V19.918L133 18.5117L133.391 18.9219V21.2852C134.315 20.4258 135.396 19.7487 136.633 19.2539C137.87 18.7591 139.087 18.5117 140.285 18.5117C142.03 18.5117 143.475 19.0456 144.621 20.1133C145.78 21.181 146.359 22.7695 146.359 24.8789V36.793L149.953 38.1992V39H139.348V38.1992L142.766 36.793V26.0703C142.766 24.1953 142.427 22.8932 141.75 22.1641C141.086 21.4349 139.94 21.0703 138.312 21.0703C136.372 21.0703 134.732 21.6497 133.391 22.8086V36.793L136.789 38.1992ZM171.184 37.2812V38.0039L166.945 39.3125C166.112 39.4948 165.409 39.3971 164.836 39.0195C164.263 38.6549 163.977 38.0234 163.977 37.125C162.284 38.7005 160.298 39.4883 158.02 39.4883C156.132 39.4883 154.719 39 153.781 38.0234C152.844 37.0469 152.375 35.8229 152.375 34.3516C152.375 33.2448 152.622 32.2682 153.117 31.4219C153.612 30.5625 154.243 29.8789 155.012 29.3711C155.78 28.8633 156.698 28.4401 157.766 28.1016C158.833 27.763 159.862 27.5286 160.852 27.3984C161.841 27.2682 162.883 27.1901 163.977 27.1641V25.2891C163.977 23.4661 163.69 22.1966 163.117 21.4805C162.544 20.7643 161.594 20.4062 160.266 20.4062C159.263 20.4062 158.085 20.5625 156.73 20.875L154.66 25.4062H153.703V19.8398C154.875 19.4232 156.112 19.0977 157.414 18.8633C158.716 18.6289 159.862 18.5117 160.852 18.5117C163 18.5117 164.654 18.9479 165.812 19.8203C166.984 20.6797 167.57 22.099 167.57 24.0781V36.2852L171.184 37.2812ZM159.66 37.2031C160.402 37.2031 161.164 37.0273 161.945 36.6758C162.727 36.3112 163.404 35.8164 163.977 35.1914V28.7656C161.372 28.8828 159.387 29.4167 158.02 30.3672C156.652 31.3047 155.969 32.5026 155.969 33.9609C155.969 35.0807 156.327 35.901 157.043 36.4219C157.759 36.9427 158.632 37.2031 159.66 37.2031Z" fill="#323232"/>
</g>
<path d="M117.343 59.556C117.343 60.552 117.217 61.458 116.965 62.274C116.713 63.078 116.335 63.774 115.831 64.362C115.339 64.95 114.721 65.4 113.977 65.712C113.245 66.024 112.393 66.18 111.421 66.18C110.413 66.18 109.537 66.024 108.793 65.712C108.049 65.388 107.431 64.938 106.939 64.362C106.447 63.774 106.081 63.072 105.841 62.256C105.601 61.44 105.481 60.534 105.481 59.538C105.481 58.218 105.697 57.066 106.129 56.082C106.561 55.098 107.215 54.33 108.091 53.778C108.979 53.226 110.095 52.95 111.439 52.95C112.723 52.95 113.803 53.226 114.679 53.778C115.555 54.318 116.215 55.086 116.659 56.082C117.115 57.066 117.343 58.224 117.343 59.556ZM107.191 59.556C107.191 60.636 107.341 61.566 107.641 62.346C107.941 63.126 108.403 63.726 109.027 64.146C109.663 64.566 110.461 64.776 111.421 64.776C112.393 64.776 113.185 64.566 113.797 64.146C114.421 63.726 114.883 63.126 115.183 62.346C115.483 61.566 115.633 60.636 115.633 59.556C115.633 57.936 115.297 56.67 114.625 55.758C113.953 54.834 112.891 54.372 111.439 54.372C110.467 54.372 109.663 54.582 109.027 55.002C108.403 55.41 107.941 56.004 107.641 56.784C107.341 57.552 107.191 58.476 107.191 59.556ZM121.56 56.352V60.366H126.798V56.352H128.382V66H126.798V61.698H121.56V66H119.976V56.352H121.56ZM138.781 66H137.179V57.666H134.335C134.215 59.19 134.065 60.492 133.885 61.572C133.705 62.64 133.477 63.51 133.201 64.182C132.925 64.854 132.595 65.346 132.211 65.658C131.827 65.97 131.377 66.126 130.861 66.126C130.705 66.126 130.549 66.114 130.393 66.09C130.249 66.078 130.129 66.048 130.033 66V64.812C130.105 64.836 130.183 64.854 130.267 64.866C130.351 64.878 130.435 64.884 130.519 64.884C130.783 64.884 131.023 64.776 131.239 64.56C131.455 64.344 131.647 64.014 131.815 63.57C131.995 63.126 132.157 62.568 132.301 61.896C132.445 61.212 132.571 60.408 132.679 59.484C132.787 58.56 132.883 57.516 132.967 56.352H138.781V66ZM145.497 56.19C146.673 56.19 147.543 56.448 148.107 56.964C148.671 57.48 148.953 58.302 148.953 59.43V66H147.801L147.495 64.632H147.423C147.147 64.98 146.859 65.274 146.559 65.514C146.271 65.742 145.935 65.91 145.551 66.018C145.179 66.126 144.723 66.18 144.183 66.18C143.607 66.18 143.085 66.078 142.617 65.874C142.161 65.67 141.801 65.358 141.537 64.938C141.273 64.506 141.141 63.966 141.141 63.318C141.141 62.358 141.519 61.62 142.275 61.104C143.031 60.576 144.195 60.288 145.767 60.24L147.405 60.186V59.61C147.405 58.806 147.231 58.248 146.883 57.936C146.535 57.624 146.043 57.468 145.407 57.468C144.903 57.468 144.423 57.546 143.967 57.702C143.511 57.846 143.085 58.014 142.689 58.206L142.203 57.018C142.623 56.79 143.121 56.598 143.697 56.442C144.273 56.274 144.873 56.19 145.497 56.19ZM145.965 61.338C144.765 61.386 143.931 61.578 143.463 61.914C143.007 62.25 142.779 62.724 142.779 63.336C142.779 63.876 142.941 64.272 143.265 64.524C143.601 64.776 144.027 64.902 144.543 64.902C145.359 64.902 146.037 64.68 146.577 64.236C147.117 63.78 147.387 63.084 147.387 62.148V61.284L145.965 61.338ZM159.745 52.356C159.697 52.956 159.547 53.46 159.295 53.868C159.055 54.276 158.695 54.582 158.215 54.786C157.735 54.99 157.111 55.092 156.343 55.092C155.563 55.092 154.933 54.99 154.453 54.786C153.985 54.582 153.643 54.282 153.427 53.886C153.211 53.478 153.079 52.968 153.031 52.356H154.507C154.567 53.004 154.735 53.442 155.011 53.67C155.299 53.886 155.755 53.994 156.379 53.994C156.931 53.994 157.363 53.88 157.675 53.652C157.999 53.412 158.191 52.98 158.251 52.356H159.745ZM153.427 62.238C153.427 62.346 153.421 62.502 153.409 62.706C153.409 62.898 153.403 63.108 153.391 63.336C153.379 63.552 153.367 63.762 153.355 63.966C153.343 64.158 153.331 64.314 153.319 64.434L158.485 56.352H160.429V66H158.953V60.312C158.953 60.12 158.953 59.868 158.953 59.556C158.965 59.244 158.977 58.938 158.989 58.638C159.001 58.326 159.013 58.092 159.025 57.936L153.895 66H151.933V56.352H153.427V62.238ZM165.083 56.352V60.366H170.321V56.352H171.905V66H170.321V61.698H165.083V66H163.499V56.352H165.083ZM192.507 59.556C192.507 60.552 192.381 61.458 192.129 62.274C191.877 63.078 191.499 63.774 190.995 64.362C190.503 64.95 189.885 65.4 189.141 65.712C188.409 66.024 187.557 66.18 186.585 66.18C185.577 66.18 184.701 66.024 183.957 65.712C183.213 65.388 182.595 64.938 182.103 64.362C181.611 63.774 181.245 63.072 181.005 62.256C180.765 61.44 180.645 60.534 180.645 59.538C180.645 58.218 180.861 57.066 181.293 56.082C181.725 55.098 182.379 54.33 183.255 53.778C184.143 53.226 185.259 52.95 186.603 52.95C187.887 52.95 188.967 53.226 189.843 53.778C190.719 54.318 191.379 55.086 191.823 56.082C192.279 57.066 192.507 58.224 192.507 59.556ZM182.355 59.556C182.355 60.636 182.505 61.566 182.805 62.346C183.105 63.126 183.567 63.726 184.191 64.146C184.827 64.566 185.625 64.776 186.585 64.776C187.557 64.776 188.349 64.566 188.961 64.146C189.585 63.726 190.047 63.126 190.347 62.346C190.647 61.566 190.797 60.636 190.797 59.556C190.797 57.936 190.461 56.67 189.789 55.758C189.117 54.834 188.055 54.372 186.603 54.372C185.631 54.372 184.827 54.582 184.191 55.002C183.567 55.41 183.105 56.004 182.805 56.784C182.505 57.552 182.355 58.476 182.355 59.556ZM200.9 56.208C201.86 56.292 202.694 56.544 203.402 56.964C204.122 57.384 204.68 57.948 205.076 58.656C205.472 59.364 205.67 60.204 205.67 61.176C205.67 62.148 205.478 62.994 205.094 63.714C204.71 64.422 204.164 64.986 203.456 65.406C202.748 65.814 201.896 66.06 200.9 66.144V70.32H199.352V66.144C198.404 66.06 197.57 65.814 196.85 65.406C196.13 64.986 195.572 64.422 195.176 63.714C194.78 62.994 194.582 62.148 194.582 61.176C194.582 60.192 194.774 59.346 195.158 58.638C195.542 57.918 196.094 57.354 196.814 56.946C197.534 56.526 198.398 56.28 199.406 56.208V52.32H200.9V56.208ZM199.406 57.522C198.674 57.594 198.074 57.78 197.606 58.08C197.138 58.38 196.79 58.788 196.562 59.304C196.346 59.82 196.238 60.444 196.238 61.176C196.238 61.896 196.346 62.52 196.562 63.048C196.79 63.564 197.138 63.978 197.606 64.29C198.074 64.59 198.674 64.776 199.406 64.848V57.522ZM200.9 64.848C201.62 64.764 202.208 64.572 202.664 64.272C203.132 63.972 203.474 63.564 203.69 63.048C203.918 62.52 204.032 61.896 204.032 61.176C204.032 60.456 203.918 59.838 203.69 59.322C203.462 58.806 203.114 58.398 202.646 58.098C202.19 57.798 201.608 57.612 200.9 57.54V64.848ZM209.677 62.238C209.677 62.346 209.671 62.502 209.659 62.706C209.659 62.898 209.653 63.108 209.641 63.336C209.629 63.552 209.617 63.762 209.605 63.966C209.593 64.158 209.581 64.314 209.569 64.434L214.735 56.352H216.679V66H215.203V60.312C215.203 60.12 215.203 59.868 215.203 59.556C215.215 59.244 215.227 58.938 215.239 58.638C215.251 58.326 215.263 58.092 215.275 57.936L210.145 66H208.183V56.352H209.677V62.238ZM229.271 69.348H227.723V66H219.749V56.352H221.333V64.668H226.319V56.352H227.903V64.686H229.271V69.348ZM232.616 62.238C232.616 62.346 232.61 62.502 232.598 62.706C232.598 62.898 232.592 63.108 232.58 63.336C232.568 63.552 232.556 63.762 232.544 63.966C232.532 64.158 232.52 64.314 232.508 64.434L237.674 56.352H239.618V66H238.142V60.312C238.142 60.12 238.142 59.868 238.142 59.556C238.154 59.244 238.166 58.938 238.178 58.638C238.19 58.326 238.202 58.092 238.214 57.936L233.084 66H231.122V56.352H232.616V62.238ZM246.343 56.19C247.519 56.19 248.389 56.448 248.953 56.964C249.517 57.48 249.799 58.302 249.799 59.43V66H248.647L248.341 64.632H248.269C247.993 64.98 247.705 65.274 247.405 65.514C247.117 65.742 246.781 65.91 246.397 66.018C246.025 66.126 245.569 66.18 245.029 66.18C244.453 66.18 243.931 66.078 243.463 65.874C243.007 65.67 242.647 65.358 242.383 64.938C242.119 64.506 241.987 63.966 241.987 63.318C241.987 62.358 242.365 61.62 243.121 61.104C243.877 60.576 245.041 60.288 246.613 60.24L248.251 60.186V59.61C248.251 58.806 248.077 58.248 247.729 57.936C247.381 57.624 246.889 57.468 246.253 57.468C245.749 57.468 245.269 57.546 244.813 57.702C244.357 57.846 243.931 58.014 243.535 58.206L243.049 57.018C243.469 56.79 243.967 56.598 244.543 56.442C245.119 56.274 245.719 56.19 246.343 56.19ZM246.811 61.338C245.611 61.386 244.777 61.578 244.309 61.914C243.853 62.25 243.625 62.724 243.625 63.336C243.625 63.876 243.787 64.272 244.111 64.524C244.447 64.776 244.873 64.902 245.389 64.902C246.205 64.902 246.883 64.68 247.423 64.236C247.963 63.78 248.233 63.084 248.233 62.148V61.284L246.811 61.338ZM254.363 56.352V60.366H259.601V56.352H261.185V66H259.601V61.698H254.363V66H252.779V56.352H254.363ZM270.899 57.684H267.749V66H266.183V57.684H263.069V56.352H270.899V57.684Z" fill="#2D2D2D"/>
<path d="M3 3.29407V18.9111V19.2261V18.9111C3 23.3701 4.87104 27.3181 7.77205 29.8731C9.19048 31.1226 10.1278 32.8096 10.1278 34.6821V60.7501C10.1278 63.6481 12.5227 66.0001 15.4736 66.0001C18.4245 66.0001 20.8194 63.6481 20.8194 60.7501V34.6821C20.8194 32.8096 21.7567 31.1226 23.1752 29.8731C26.0762 27.3181 27.9472 23.3701 27.9472 18.9111V3.29407V18.9111" stroke="#323232" stroke-width="6" stroke-linecap="round" stroke-linejoin="round"/>
<path d="M15.4736 20.5V3" stroke="#323232" stroke-width="6" stroke-linecap="round" stroke-linejoin="round"/>
<path d="M63.5861 6.68201C63.5861 4.75001 61.9895 3.18201 60.0222 3.18201H56.4583C50.553 3.18201 45.7667 7.88251 45.7667 13.682V34.682C45.7667 39.246 48.7496 43.0925 52.8944 44.538V60.75C52.8944 63.648 55.2894 66 58.2403 66C61.1912 66 63.5861 63.648 63.5861 60.75V45.182V6.68201Z" stroke="#323232" stroke-width="6" stroke-linecap="round" stroke-linejoin="round"/>
<defs>
<filter id="filter0_d_145_989" x="81.207" y="10.1914" width="93.9766" height="37.3945" filterUnits="userSpaceOnUse" color-interpolation-filters="sRGB">
<feFlood flood-opacity="0" result="BackgroundImageFix"/>
<feColorMatrix in="SourceAlpha" type="matrix" values="0 0 0 0 0 0 0 0 0 0 0 0 0 0 0 0 0 0 127 0" result="hardAlpha"/>
<feOffset dy="4"/>
<feGaussianBlur stdDeviation="2"/>
<feComposite in2="hardAlpha" operator="out"/>
<feColorMatrix type="matrix" values="0 0 0 0 0 0 0 0 0 0 0 0 0 0 0 0 0 0 0.25 0"/>
<feBlend mode="normal" in2="BackgroundImageFix" result="effect1_dropShadow_145_989"/>
<feBlend mode="normal" in="SourceGraphic" in2="effect1_dropShadow_145_989" result="shape"/>
</filter>
</defs>
</svg>
