<svg width="126" height="123" viewBox="0 0 126 123" fill="none" xmlns="http://www.w3.org/2000/svg">
<path d="M15.75 15.8055V38.6733V39.1345V38.6733C15.75 45.2025 18.5063 50.9835 22.7798 54.7248C24.8693 56.5544 26.25 59.0247 26.25 61.7665V99.9375C26.25 104.181 29.778 107.625 34.125 107.625C38.472 107.625 42 104.181 42 99.9375V61.7665C42 59.0247 43.3808 56.5544 45.4703 54.7248C49.7438 50.9835 52.5 45.2025 52.5 38.6733V15.8055V38.6733" stroke="#F0F0F0" stroke-width="10" stroke-linecap="round" stroke-linejoin="round"/>
<path d="M34.125 41V15.375" stroke="#F0F0F0" stroke-width="10" stroke-linecap="round" stroke-linejoin="round"/>
<path d="M105 20.7665C105 17.9375 102.648 15.6415 99.75 15.6415H94.5C85.8008 15.6415 78.75 22.5244 78.75 31.0165V61.7665C78.75 68.4495 83.1443 74.0819 89.25 76.1985V99.9375C89.25 104.181 92.778 107.625 97.125 107.625C101.472 107.625 105 104.181 105 99.9375V77.1415V20.7665Z" stroke="#F0F0F0" stroke-width="10" stroke-linecap="round" stroke-linejoin="round"/>
</svg>
